<svg xmlns="http://www.w3.org/2000/svg" xmlns:xlink="http://www.w3.org/1999/xlink" width="1133" zoomAndPan="magnify" viewBox="0 0 849.75 594.749999" height="793" preserveAspectRatio="xMidYMid meet" version="1.0"><defs><clipPath id="1d841e02e2"><path d="M 434.601562 65.050781 L 687.835938 65.050781 L 687.835938 530 L 434.601562 530 Z M 434.601562 65.050781 " clip-rule="nonzero"/></clipPath><clipPath id="7ab69da6a9"><path d="M 628.777344 398.679688 C 626.175781 398.289062 622.535156 398.027344 618.765625 397.378906 C 615.121094 401.148438 610.183594 403.359375 604.589844 403.359375 C 593.667969 403.359375 584.695312 394.515625 584.695312 383.59375 C 584.695312 372.671875 593.539062 363.699219 604.589844 363.699219 C 613.171875 363.699219 620.324219 369.160156 623.183594 376.703125 C 637.617188 379.824219 653.222656 375.664062 664.664062 365.519531 C 695.222656 341.855469 693.53125 289.972656 667.003906 263.835938 C 663.496094 260.324219 662.195312 254.863281 663.496094 249.921875 C 672.855469 215.074219 653.222656 173.984375 619.933594 165.53125 C 618.894531 171.382812 617.464844 176.84375 615.511719 182.304688 C 614.082031 188.285156 607.0625 199.339844 598.738281 207.921875 C 598.867188 208.832031 599 209.742188 599 210.652344 C 599 221.574219 590.15625 230.546875 579.105469 230.546875 C 568.050781 230.546875 559.210938 221.703125 559.210938 210.652344 C 559.210938 199.597656 568.050781 190.886719 579.105469 190.886719 C 581.835938 190.886719 584.566406 191.40625 586.90625 192.449219 C 598.21875 181.523438 604.460938 164.878906 602.378906 148.238281 C 597.828125 109.617188 559.210938 91.152344 528.132812 106.886719 C 522.671875 72.558594 486.132812 55.394531 458.566406 70.996094 C 445.171875 78.148438 436.070312 92.710938 434.640625 108.96875 C 435.03125 133.542969 434.898438 186.726562 434.769531 219.105469 L 471.308594 219.105469 C 481.191406 211.691406 487.433594 201.03125 491.332031 191.925781 C 495.882812 180.875 497.183594 168.910156 492.894531 157.730469 C 492.894531 157.730469 492.765625 157.730469 492.765625 157.730469 C 481.839844 157.730469 472.871094 148.886719 472.871094 137.835938 C 472.871094 126.78125 481.710938 117.9375 492.765625 117.9375 C 503.816406 117.9375 512.660156 126.78125 512.660156 137.835938 C 512.660156 141.34375 511.617188 144.59375 510.058594 147.457031 C 511.617188 151.097656 512.789062 154.347656 513.179688 156.6875 C 516.429688 170.082031 515.257812 183.996094 510.449219 196.609375 C 507.457031 204.539062 502.777344 212.472656 497.574219 218.972656 C 515.390625 219.753906 529.5625 234.1875 529.5625 252.132812 L 529.5625 318.320312 C 550.628906 327.550781 580.40625 319.359375 593.539062 297.511719 C 588.207031 289.320312 589.507812 278.269531 597.179688 271.636719 C 605.5 264.484375 617.984375 265.394531 625.136719 273.71875 C 632.285156 282.039062 631.375 294.523438 623.054688 301.675781 C 619.542969 304.796875 615.121094 306.226562 610.832031 306.355469 C 608.492188 309.996094 606.019531 313.246094 604.070312 315.847656 C 597.699219 322.480469 590.546875 328.460938 582.617188 332.882812 C 566.230469 342.632812 546.726562 344.714844 529.691406 340.292969 L 529.691406 529.75 C 537.234375 529.492188 545.167969 528.582031 553.488281 526.761719 C 574.683594 521.949219 625.003906 493.601562 629.425781 470.195312 C 629.6875 468.636719 629.816406 466.816406 631.636719 466.554688 C 664.792969 457.972656 686.898438 416.882812 677.277344 380.992188 C 663.363281 392.046875 646.460938 399.71875 629.035156 398.546875 " clip-rule="nonzero"/></clipPath><clipPath id="17cf96c89f"><path d="M 0.601562 0.0507812 L 253.835938 0.0507812 L 253.835938 464.9375 L 0.601562 464.9375 Z M 0.601562 0.0507812 " clip-rule="nonzero"/></clipPath><clipPath id="b740f85f0b"><path d="M 194.777344 333.679688 C 192.175781 333.289062 188.535156 333.027344 184.765625 332.378906 C 181.121094 336.148438 176.183594 338.359375 170.589844 338.359375 C 159.667969 338.359375 150.695312 329.515625 150.695312 318.59375 C 150.695312 307.671875 159.539062 298.699219 170.589844 298.699219 C 179.171875 298.699219 186.324219 304.160156 189.183594 311.703125 C 203.617188 314.824219 219.222656 310.664062 230.664062 300.519531 C 261.222656 276.855469 259.53125 224.972656 233.003906 198.835938 C 229.496094 195.324219 228.195312 189.863281 229.496094 184.921875 C 238.855469 150.074219 219.222656 108.984375 185.933594 100.53125 C 184.894531 106.382812 183.464844 111.84375 181.511719 117.304688 C 180.082031 123.285156 173.0625 134.339844 164.738281 142.921875 C 164.867188 143.832031 165 144.742188 165 145.652344 C 165 156.574219 156.15625 165.546875 145.105469 165.546875 C 134.050781 165.546875 125.210938 156.703125 125.210938 145.652344 C 125.210938 134.597656 134.050781 125.886719 145.105469 125.886719 C 147.835938 125.886719 150.566406 126.40625 152.90625 127.449219 C 164.21875 116.523438 170.460938 99.878906 168.378906 83.238281 C 163.828125 44.617188 125.210938 26.152344 94.132812 41.886719 C 88.671875 7.558594 52.132812 -9.605469 24.566406 5.996094 C 11.171875 13.148438 2.070312 27.710938 0.640625 43.96875 C 1.03125 68.542969 0.898438 121.726562 0.769531 154.105469 L 37.308594 154.105469 C 47.191406 146.691406 53.433594 136.03125 57.332031 126.925781 C 61.882812 115.875 63.183594 103.910156 58.894531 92.730469 C 58.894531 92.730469 58.765625 92.730469 58.765625 92.730469 C 47.839844 92.730469 38.871094 83.886719 38.871094 72.835938 C 38.871094 61.78125 47.710938 52.9375 58.765625 52.9375 C 69.816406 52.9375 78.660156 61.78125 78.660156 72.835938 C 78.660156 76.34375 77.617188 79.59375 76.058594 82.457031 C 77.617188 86.097656 78.789062 89.347656 79.179688 91.6875 C 82.429688 105.082031 81.257812 118.996094 76.449219 131.609375 C 73.457031 139.539062 68.777344 147.472656 63.574219 153.972656 C 81.390625 154.753906 95.5625 169.1875 95.5625 187.132812 L 95.5625 253.320312 C 116.628906 262.550781 146.40625 254.359375 159.539062 232.511719 C 154.207031 224.320312 155.507812 213.269531 163.179688 206.636719 C 171.5 199.484375 183.984375 200.394531 191.136719 208.71875 C 198.285156 217.039062 197.375 229.523438 189.054688 236.675781 C 185.542969 239.796875 181.121094 241.226562 176.832031 241.355469 C 174.492188 244.996094 172.019531 248.246094 170.070312 250.847656 C 163.699219 257.480469 156.546875 263.460938 148.617188 267.882812 C 132.230469 277.632812 112.726562 279.714844 95.691406 275.292969 L 95.691406 464.75 C 103.234375 464.492188 111.167969 463.582031 119.488281 461.761719 C 140.683594 456.949219 191.003906 428.601562 195.425781 405.195312 C 195.6875 403.636719 195.816406 401.816406 197.636719 401.554688 C 230.792969 392.972656 252.898438 351.882812 243.277344 315.992188 C 229.363281 327.046875 212.460938 334.71875 195.035156 333.546875 " clip-rule="nonzero"/></clipPath><clipPath id="64148efe75"><rect x="0" width="254" y="0" height="465"/></clipPath><clipPath id="bc7685b359"><path d="M 349 408 L 501 408 L 501 457 L 349 457 Z M 349 408 " clip-rule="nonzero"/></clipPath><clipPath id="f6eb42d1d3"><path d="M 424.886719 416.234375 C 424.886719 416.234375 364.8125 385.675781 349.46875 448.871094 C 348.429688 453.03125 351.550781 456.933594 355.710938 456.933594 L 494.0625 456.933594 C 498.226562 456.933594 501.347656 452.902344 500.304688 448.871094 C 484.960938 385.675781 424.886719 416.234375 424.886719 416.234375 " clip-rule="nonzero"/></clipPath><clipPath id="6b0ddd975d"><path d="M 0 0 L 152 0 L 152 49 L 0 49 Z M 0 0 " clip-rule="nonzero"/></clipPath><clipPath id="8ce74b96b6"><path d="M 75.886719 8.234375 C 75.886719 8.234375 15.8125 -22.324219 0.46875 40.871094 C -0.570312 45.03125 2.550781 48.933594 6.710938 48.933594 L 145.0625 48.933594 C 149.226562 48.933594 152.347656 44.902344 151.304688 40.871094 C 135.960938 -22.324219 75.886719 8.234375 75.886719 8.234375 " clip-rule="nonzero"/></clipPath><clipPath id="f8c8db938c"><rect x="0" width="152" y="0" height="49"/></clipPath><clipPath id="a1ea1ef082"><path d="M 162 65.050781 L 416 65.050781 L 416 531 L 162 531 Z M 162 65.050781 " clip-rule="nonzero"/></clipPath><clipPath id="4dda4174da"><path d="M 320.214844 340.292969 C 303.179688 344.84375 283.675781 342.632812 267.289062 332.882812 C 259.230469 328.460938 252.078125 322.480469 245.835938 315.847656 C 244.015625 313.246094 241.542969 309.996094 239.074219 306.355469 C 234.78125 306.226562 230.363281 304.796875 226.851562 301.675781 C 218.527344 294.523438 217.617188 282.039062 224.769531 273.71875 C 231.921875 265.394531 244.40625 264.484375 252.726562 271.636719 C 260.398438 278.269531 261.699219 289.320312 256.367188 297.511719 C 269.5 319.359375 299.277344 327.679688 320.34375 318.320312 L 320.34375 252.132812 C 320.34375 234.1875 334.515625 219.625 352.332031 218.972656 C 347.128906 212.472656 342.449219 204.539062 339.457031 196.609375 C 334.644531 183.867188 333.347656 169.953125 336.726562 156.6875 C 337.246094 154.347656 338.289062 151.097656 339.976562 147.457031 C 338.417969 144.59375 337.378906 141.34375 337.378906 137.835938 C 337.378906 126.910156 346.21875 118.070312 357.273438 118.070312 C 368.324219 118.070312 377.035156 126.910156 377.035156 137.835938 C 377.035156 148.757812 368.195312 157.730469 357.273438 157.730469 C 357.140625 157.730469 357.140625 157.730469 357.140625 157.730469 C 352.851562 168.910156 354.152344 180.875 358.703125 191.925781 C 362.601562 200.898438 368.972656 211.691406 378.726562 219.105469 L 415.003906 219.105469 C 414.875 186.726562 414.746094 133.542969 415.136719 108.96875 C 413.707031 92.710938 404.601562 78.28125 391.210938 70.996094 C 363.644531 55.394531 327.105469 72.558594 321.644531 106.886719 C 290.566406 91.28125 251.945312 109.617188 247.394531 148.238281 C 245.183594 164.878906 251.558594 181.523438 262.871094 192.449219 C 265.210938 191.40625 267.941406 190.886719 270.671875 190.886719 C 281.59375 190.886719 290.566406 199.730469 290.566406 210.78125 C 290.566406 221.835938 281.722656 230.675781 270.671875 230.675781 C 259.617188 230.675781 250.777344 221.835938 250.777344 210.78125 C 250.777344 209.871094 250.90625 208.960938 251.035156 208.050781 C 242.714844 199.46875 235.691406 188.417969 234.261719 182.433594 C 232.3125 176.84375 230.882812 171.382812 229.839844 165.660156 C 196.554688 174.113281 176.917969 215.074219 186.28125 250.050781 C 187.582031 255.121094 186.28125 260.453125 182.769531 263.964844 C 156.246094 290.101562 154.683594 341.984375 185.242188 365.648438 C 196.683594 375.792969 212.289062 379.953125 226.722656 376.832031 C 229.582031 369.292969 236.734375 363.828125 245.316406 363.828125 C 256.238281 363.828125 265.210938 372.671875 265.210938 383.722656 C 265.210938 394.777344 256.367188 403.621094 245.316406 403.621094 C 239.722656 403.621094 234.652344 401.277344 231.140625 397.636719 C 227.371094 398.289062 223.601562 398.679688 221.128906 398.9375 C 203.574219 400.109375 186.800781 392.308594 172.886719 381.382812 C 163.265625 417.144531 185.371094 458.363281 218.527344 466.945312 C 220.347656 467.207031 220.480469 469.027344 220.738281 470.585938 C 225.03125 493.863281 275.351562 522.207031 296.675781 527.148438 C 304.871094 528.96875 312.800781 530.011719 320.472656 530.140625 Z M 320.214844 340.292969 " clip-rule="nonzero"/></clipPath><clipPath id="c7e8279bef"><path d="M 0 0.0507812 L 253.320312 0.0507812 L 253.320312 465.175781 L 0 465.175781 Z M 0 0.0507812 " clip-rule="nonzero"/></clipPath><clipPath id="8a5f7a95a0"><path d="M 158.214844 275.292969 C 141.179688 279.84375 121.675781 277.632812 105.289062 267.882812 C 97.230469 263.460938 90.078125 257.480469 83.835938 250.847656 C 82.015625 248.246094 79.542969 244.996094 77.074219 241.355469 C 72.78125 241.226562 68.363281 239.796875 64.851562 236.675781 C 56.527344 229.523438 55.617188 217.039062 62.769531 208.71875 C 69.921875 200.394531 82.40625 199.484375 90.726562 206.636719 C 98.398438 213.269531 99.699219 224.320312 94.367188 232.511719 C 107.5 254.359375 137.277344 262.679688 158.34375 253.320312 L 158.34375 187.132812 C 158.34375 169.1875 172.515625 154.625 190.332031 153.972656 C 185.128906 147.472656 180.449219 139.539062 177.457031 131.609375 C 172.644531 118.867188 171.347656 104.953125 174.726562 91.6875 C 175.246094 89.347656 176.289062 86.097656 177.976562 82.457031 C 176.417969 79.59375 175.378906 76.34375 175.378906 72.835938 C 175.378906 61.910156 184.21875 53.070312 195.273438 53.070312 C 206.324219 53.070312 215.035156 61.910156 215.035156 72.835938 C 215.035156 83.757812 206.195312 92.730469 195.273438 92.730469 C 195.140625 92.730469 195.140625 92.730469 195.140625 92.730469 C 190.851562 103.910156 192.152344 115.875 196.703125 126.925781 C 200.601562 135.898438 206.972656 146.691406 216.726562 154.105469 L 253.003906 154.105469 C 252.875 121.726562 252.746094 68.542969 253.136719 43.96875 C 251.707031 27.710938 242.601562 13.28125 229.210938 5.996094 C 201.644531 -9.605469 165.105469 7.558594 159.644531 41.886719 C 128.566406 26.28125 89.945312 44.617188 85.394531 83.238281 C 83.183594 99.878906 89.558594 116.523438 100.871094 127.449219 C 103.210938 126.40625 105.941406 125.886719 108.671875 125.886719 C 119.59375 125.886719 128.566406 134.730469 128.566406 145.78125 C 128.566406 156.835938 119.722656 165.675781 108.671875 165.675781 C 97.617188 165.675781 88.777344 156.835938 88.777344 145.78125 C 88.777344 144.871094 88.90625 143.960938 89.035156 143.050781 C 80.714844 134.46875 73.691406 123.417969 72.261719 117.433594 C 70.3125 111.84375 68.882812 106.382812 67.839844 100.660156 C 34.554688 109.113281 14.917969 150.074219 24.28125 185.050781 C 25.582031 190.121094 24.28125 195.453125 20.769531 198.964844 C -5.753906 225.101562 -7.316406 276.984375 23.242188 300.648438 C 34.683594 310.792969 50.289062 314.953125 64.722656 311.832031 C 67.582031 304.292969 74.734375 298.828125 83.316406 298.828125 C 94.238281 298.828125 103.210938 307.671875 103.210938 318.722656 C 103.210938 329.777344 94.367188 338.621094 83.316406 338.621094 C 77.722656 338.621094 72.652344 336.277344 69.140625 332.636719 C 65.371094 333.289062 61.601562 333.679688 59.128906 333.9375 C 41.574219 335.109375 24.800781 327.308594 10.886719 316.382812 C 1.265625 352.144531 23.371094 393.363281 56.527344 401.945312 C 58.347656 402.207031 58.480469 404.027344 58.738281 405.585938 C 63.03125 428.863281 113.351562 457.207031 134.675781 462.148438 C 142.871094 463.96875 150.800781 465.011719 158.472656 465.140625 Z M 158.214844 275.292969 " clip-rule="nonzero"/></clipPath><clipPath id="36f400daef"><rect x="0" width="254" y="0" height="466"/></clipPath></defs><g clip-path="url(#1d841e02e2)"><g clip-path="url(#7ab69da6a9)"><g transform="matrix(1, 0, 0, 1, 434, 65)"><g clip-path="url(#64148efe75)"><g clip-path="url(#17cf96c89f)"><g clip-path="url(#b740f85f0b)"><rect x="-620.945" width="1223.64" fill="#006e96" height="856.439999" y="-195.845" fill-opacity="1"/></g></g></g></g></g></g><g clip-path="url(#bc7685b359)"><g clip-path="url(#f6eb42d1d3)"><g transform="matrix(1, 0, 0, 1, 349, 408)"><g clip-path="url(#f8c8db938c)"><g clip-path="url(#6b0ddd975d)"><g clip-path="url(#8ce74b96b6)"><rect x="-535.945" width="1223.64" fill="#006e96" height="856.439999" y="-538.845" fill-opacity="1"/></g></g></g></g></g></g><g clip-path="url(#a1ea1ef082)"><g clip-path="url(#4dda4174da)"><g transform="matrix(1, 0, 0, 1, 162, 65)"><g clip-path="url(#36f400daef)"><g clip-path="url(#c7e8279bef)"><g clip-path="url(#8a5f7a95a0)"><rect x="-348.945" width="1223.64" fill="#006e96" height="856.439999" y="-195.845" fill-opacity="1"/></g></g></g></g></g></g></svg>